HIERARCHY
ROOT Hips
{
	OFFSET 0.000000 0.000000 0.000000
	CHANNELS 6 Xposition Yposition Zposition Zrotation Yrotation Xrotation 
	JOINT LHipJoint
	{
		OFFSET 0.000000 0.000000 0.000000
		CHANNELS 3 Zrotation Yrotation Xrotation
		JOINT LeftUpLeg
		{
			OFFSET 1.363060 -1.794630 0.839290
			CHANNELS 3 Zrotation Yrotation Xrotation
			JOINT LeftLeg
			{
				OFFSET 2.448110 -6.726130 0.000000
				CHANNELS 3 Zrotation Yrotation Xrotation
				JOINT LeftFoot
				{
					OFFSET 2.562200 -7.039590 0.000000
					CHANNELS 3 Zrotation Yrotation Xrotation
					JOINT LeftToeBase
					{
						OFFSET 0.157640 -0.433110 2.322550
						CHANNELS 3 Zrotation Yrotation Xrotation
						End Site
						{
							OFFSET 0.000000 0.000000 0.000000
						}
					}
				}
			}
		}
	}
	JOINT RHipJoint
	{
		OFFSET 0.000000 0.000000 0.000000
		CHANNELS 3 Zrotation Yrotation Xrotation
		JOINT RightUpLeg
		{
			OFFSET -1.305520 -1.794630 0.839290
			CHANNELS 3 Zrotation Yrotation Xrotation
			JOINT RightLeg
			{
				OFFSET -2.542530 -6.985550 0.000000
				CHANNELS 3 Zrotation Yrotation Xrotation
				JOINT RightFoot
				{
					OFFSET -2.568260 -7.056230 0.000000
					CHANNELS 3 Zrotation Yrotation Xrotation
					JOINT RightToeBase
					{
						OFFSET -0.164730 -0.452590 2.363150
						CHANNELS 3 Zrotation Yrotation Xrotation
						End Site
						{
							OFFSET 0.000000 0.000000 0.000000
						}
					}
				}
			}
		}
	}
	JOINT LowerBack
	{
		OFFSET 0.000000 0.000000 0.000000
		CHANNELS 3 Zrotation Yrotation Xrotation
		JOINT Spine
		{
			OFFSET 0.028270 2.035590 -0.193380
			CHANNELS 3 Zrotation Yrotation Xrotation
			JOINT Spine1
			{
				OFFSET 0.056720 2.048850 -0.042750
				CHANNELS 3 Zrotation Yrotation Xrotation
				JOINT Neck
				{
					OFFSET 0.000000 0.000000 0.000000
					CHANNELS 3 Zrotation Yrotation Xrotation
					JOINT Neck1
					{
						OFFSET -0.054170 1.746240 0.172020
						CHANNELS 3 Zrotation Yrotation Xrotation
						JOINT Head
						{
							OFFSET 0.104070 1.761360 -0.123970
							CHANNELS 3 Zrotation Yrotation Xrotation
							End Site
							{
								OFFSET 0.000000 0.000000 0.000000
							}
						}
					}
				}
				JOINT LeftShoulder
				{
					OFFSET 0.000000 0.000000 0.000000
					CHANNELS 3 Zrotation Yrotation Xrotation
					JOINT LeftArm
					{
						OFFSET 3.362410 1.200890 -0.311210
						CHANNELS 3 Zrotation Yrotation Xrotation
						JOINT LeftForeArm
						{
							OFFSET 4.983000 -0.000000 -0.000000
							CHANNELS 3 Zrotation Yrotation Xrotation
							JOINT LeftHand
							{
								OFFSET 3.483560 -0.000000 -0.000000
								CHANNELS 3 Zrotation Yrotation Xrotation
								JOINT LeftFingerBase
								{
									OFFSET 0.000000 0.000000 0.000000
									CHANNELS 3 Zrotation Yrotation Xrotation
									JOINT LeftHandIndex1
									{
										OFFSET 0.715260 -0.000000 -0.000000
										CHANNELS 3 Zrotation Yrotation Xrotation
										End Site
										{
											OFFSET 0.000000 0.000000 0.000000
										}
									}
								}
								JOINT LThumb
								{
									OFFSET 0.000000 0.000000 0.000000
									CHANNELS 3 Zrotation Yrotation Xrotation
									End Site
									{
										OFFSET 0.000000 0.000000 0.000000
									}
								}
							}
						}
					}
				}
				JOINT RightShoulder
				{
					OFFSET 0.000000 0.000000 0.000000
					CHANNELS 3 Zrotation Yrotation Xrotation
					JOINT RightArm
					{
						OFFSET -3.136600 1.374050 -0.404650
						CHANNELS 3 Zrotation Yrotation Xrotation
						JOINT RightForeArm
						{
							OFFSET -5.241900 -0.000000 -0.000000
							CHANNELS 3 Zrotation Yrotation Xrotation
							JOINT RightHand
							{
								OFFSET -3.444170 -0.000000 -0.000000
								CHANNELS 3 Zrotation Yrotation Xrotation
								JOINT RightFingerBase
								{
									OFFSET 0.000000 0.000000 0.000000
									CHANNELS 3 Zrotation Yrotation Xrotation
									JOINT RightHandIndex1
									{
										OFFSET -0.622530 -0.000000 -0.000000
										CHANNELS 3 Zrotation Yrotation Xrotation
										End Site
										{
											OFFSET 0.000000 0.000000 0.000000
										}
									}
								}
								JOINT RThumb
								{
									OFFSET 0.000000 0.000000 0.000000
									CHANNELS 3 Zrotation Yrotation Xrotation
									End Site
									{
										OFFSET 0.000000 0.000000 0.000000
									}
								}
							}
						}
					}
				}
			}
		}
	}
}
MOTION
Frames: 7
Frame Time: 0.008333
4.394411 17.381143 1.284320 -176.426598 -58.550876 -161.095579 -11.129073 1.799601 -5.333325 -15.134881 32.150285 -22.005805 -3.705114 -1.082627 -5.959825 1.898176 14.168917 2.283002 2.689800 -0.000000 -38.287100 9.355439 0.686867 3.641393 -2.457111 12.240779 -25.785142 2.705537 1.377743 -4.490556 1.231510 5.229927 15.686851 1.213200 0.000000 -65.779500 2.328721 -6.344718 3.333597 0.735271 -6.342716 -1.459229 -2.954320 -6.486610 3.083707 15.775724 -16.162355 -6.385001 -0.514226 -0.050838 0.255905 0.000000 0.000000 0.000000 25.525406 0.623582 3.231506 22.659855 -30.928112 -88.687684 2.153881 -2.024980 -0.144663 19.534831 8.145340 1.422972 -0.670286 0.143618 -0.000000 0.000000 0.000000 0.000000 0.000000 0.000000 0.000000 9.146001 -17.415727 -1.984428 58.592142 17.897052 45.200773 179.429183 67.619392 179.967636 -7.476483 5.245121 -0.381843 0.234521 -0.437756 0.000000 0.000000 0.000000 0.000000 0.000000 0.000000 0.000000 
4.388487 17.383925 1.288169 -176.669044 -58.365313 -160.798432 -11.124382 1.821971 -5.312184 -15.383723 32.128193 -22.033005 -3.712219 -1.115025 -6.086355 1.952505 14.322676 2.378521 2.709900 0.000000 -38.097700 9.354110 0.649268 3.740426 -2.698219 12.379673 -26.005831 2.673627 1.361943 -4.494139 1.231356 5.271353 15.783292 1.242600 -0.000000 -65.853700 2.412222 -6.192437 3.204177 0.714993 -6.209541 -1.473861 -3.063340 -6.351142 3.110917 15.474835 -16.505469 -6.250163 -0.618873 -0.060529 0.291620 0.000000 0.000000 0.000000 25.968288 0.212602 3.194792 20.296044 -30.972644 -79.650240 1.211830 -5.237097 -0.050598 6.799641 9.274942 0.564043 -0.234618 0.100134 -0.000000 0.000000 0.000000 0.000000 0.000000 0.000000 0.000000 9.048942 -17.576182 -2.145901 59.379851 16.110374 44.573233 179.490209 67.465413 179.966798 -7.412416 5.044721 -0.364449 0.223410 -0.433812 0.000000 0.000000 0.000000 0.000000 0.000000 0.000000 0.000000 
4.384378 17.387387 1.291212 -176.951322 -58.226668 -160.521284 -11.119414 1.838884 -5.271116 -15.590452 32.042809 -22.111850 -3.717540 -1.128889 -5.961550 1.993656 14.519398 2.343391 2.731100 -0.000000 -37.888700 9.346898 0.602150 3.833029 -2.919318 12.467937 -26.166284 2.643454 1.345530 -4.498041 1.231722 5.320104 15.875470 1.274900 0.000000 -65.919800 2.578123 -5.996038 3.069695 0.679876 -6.040752 -1.491339 -3.287920 -6.174249 3.078264 15.102428 -16.795491 -6.018840 -0.772426 -0.075295 0.352580 0.000000 0.000000 0.000000 26.142507 -0.399677 3.078765 18.052088 -30.572558 -70.851734 0.544659 -9.488044 0.024330 -3.038299 7.483778 -0.201303 0.115560 0.176673 0.000000 0.000000 0.000000 0.000000 0.000000 0.000000 0.000000 8.983090 -17.760038 -2.260432 60.256825 14.200649 43.880417 179.543034 67.284654 179.965810 -7.334082 4.927023 -0.352357 0.212033 -0.434693 0.000000 0.000000 0.000000 0.000000 0.000000 0.000000 0.000000 
4.382120 17.391026 1.294251 -177.255468 -58.129873 -160.266982 -11.115362 1.850505 -5.219790 -15.753012 31.896314 -22.205589 -3.717723 -1.128268 -5.675014 2.029317 14.751299 2.217677 2.751300 -0.000000 -37.663900 9.336228 0.556235 3.908047 -3.118873 12.509425 -26.269030 2.615107 1.328696 -4.496355 1.231769 5.368204 15.956786 1.306100 -0.000000 -65.982701 2.804878 -5.786533 2.955845 0.636178 -5.863585 -1.506141 -3.593338 -5.985223 3.014240 14.703373 -17.039782 -5.742338 -0.956566 -0.092875 0.425181 0.000000 0.000000 0.000000 26.018186 -1.026580 2.907913 16.129811 -29.847434 -63.419768 0.191323 -14.546799 0.075160 -9.462999 4.459654 -0.355980 0.329106 0.298710 0.000000 0.000000 0.000000 0.000000 0.000000 0.000000 0.000000 8.967349 -17.934901 -2.339388 61.182937 12.273776 43.136207 179.587782 67.095520 179.964834 -7.231761 4.897476 -0.345466 0.200218 -0.439543 0.000000 0.000000 0.000000 0.000000 0.000000 0.000000 0.000000 
4.381664 17.394333 1.297922 -177.566650 -58.066418 -160.035718 -11.115657 1.859108 -5.166509 -15.874470 31.700647 -22.266525 -3.709993 -1.120793 -5.350685 2.070840 15.005466 2.062850 2.767201 0.000000 -37.430500 9.323920 0.519709 3.958310 -3.298134 12.511317 -26.320729 2.588780 1.311973 -4.483834 1.231140 5.410360 16.020519 1.333300 -0.000001 -66.049500 3.077424 -5.591735 2.879888 0.589634 -5.703473 -1.516412 -3.948096 -5.811454 2.931498 14.301747 -17.244571 -5.455049 -1.155060 -0.111517 0.500531 0.000000 0.000000 0.000000 25.634097 -1.553824 2.677317 14.455574 -28.946879 -57.592279 0.089832 -20.284409 0.105518 -13.088694 1.561591 -0.135882 0.432015 0.410857 -0.000000 0.000000 0.000000 0.000000 0.000000 0.000000 0.000000 8.993793 -18.073449 -2.387390 62.138722 10.416482 42.368605 179.622766 66.926433 179.963983 -7.099992 4.951175 -0.342677 0.188130 -0.447462 0.000000 0.000000 0.000000 0.000000 0.000000 0.000000 0.000000 
4.382738 17.396833 1.302501 -177.876544 -58.026981 -159.824640 -11.119691 1.866328 -5.117229 -15.963657 31.473308 -22.299360 -3.697059 -1.107058 -5.008148 2.115240 15.261168 1.882916 2.774900 -0.000000 -37.197499 9.310752 0.496526 3.982559 -3.460324 12.481603 -26.331470 2.564708 1.296069 -4.456309 1.229970 5.444425 16.061010 1.354700 0.000001 -66.125300 3.382401 -5.428447 2.847566 0.542928 -5.575980 -1.524205 -4.331991 -5.669835 2.827203 13.907962 -17.411249 -5.171031 -1.357361 -0.130280 0.575365 0.000000 0.000000 0.000000 25.066295 -1.971378 2.378324 12.825258 -27.919606 -53.106332 0.147422 -26.679540 0.121219 -14.698178 -0.565321 0.141151 0.465268 0.493714 -0.000000 0.000000 0.000000 0.000000 0.000000 0.000000 0.000000 9.046387 -18.160002 -2.402531 63.114006 8.678395 41.604453 179.646016 66.807567 179.963330 -6.939727 5.072488 -0.342686 0.176123 -0.457577 0.000000 0.000000 0.000000 0.000000 0.000000 0.000000 0.000000 
4.384853 17.398273 1.308040 -178.177635 -58.004333 -159.629946 -11.126523 1.873533 -5.075818 -16.032333 31.235050 -22.314922 -3.682452 -1.088283 -4.663231 2.159033 15.496923 1.683582 2.771200 -0.000000 -36.973900 9.297040 0.487284 3.984589 -3.610583 12.432819 -26.313158 2.542696 1.281882 -4.416866 1.227977 5.464870 16.078048 1.367800 -0.000000 -66.214600 3.705401 -5.303985 2.855487 0.496844 -5.487549 -1.533154 -4.731630 -5.567584 2.693655 13.529335 -17.542284 -4.894237 -1.557406 -0.148733 0.649133 0.000000 0.000000 0.000000 24.396497 -2.328101 2.011069 11.063094 -26.737303 -49.586727 0.276615 -33.707974 0.125976 -14.757798 -1.721170 0.302983 0.456319 0.547838 -0.000000 0.000000 0.000000 0.000000 0.000000 0.000000 0.000000 9.112792 -18.190961 -2.380950 64.097796 7.084530 40.864266 179.656037 66.755837 179.962884 -6.760003 5.240096 -0.344289 0.164770 -0.469106 0.000000 0.000000 0.000000 0.000000 0.000000 0.000000 0.000000 
